<svg xmlns="http://www.w3.org/2000/svg" viewBox="0 0 598 1333.33" shape-rendering="geometricPrecision" text-rendering="geometricPrecision" image-rendering="optimizeQuality" fill-rule="evenodd" clip-rule="evenodd"><g fill="#00ed64"><path d="M295.27 3.65l35.58 66.83c8 12.33 16.67 23.25 24.83 35.58 25.08 29.42 47.42 59.42 66.83 91.08 47.67 79.25 76.83 165.33 87.33 262.33 4.25 40.25 4 79.42-2.58 119.17-16.92 102.33-64.75 186.33-139.17 252.25-22 19.42-45.58 37.17-69.92 53.75-9 5.67-17.75 11.92-26 18.5V903.65l-2.33-1.5c-1.5 1.5-2.33 3.67-3.33 5.67-6.67 16.17-11.33 32.67-12.67 50-1.33 17-4.33 33.75-7.5 50.5-1.17 6.33-1.5 12.83-3.33 19-3.67 13-7.33 26.17-10.83 39.17-3 11.67-7.67 22.75-10.17 34.58-2.33 11.17-6.33 21.67-9.5 32.5-2 6.5-3.67 13.17-6.17 19.5-5.33 13.67-10.67 27.33-15.67 40.83-5.17 14.17-12.33 27.17-17.17 41.33-3.33 9.67-8 18.67-12 28.17-6.67 15.67-14.17 30.67-20 46.83-1.17 3-2.33 6.33-3.67 9.33h-1.67c-.67-10.33-3-20.33-4.33-30.5-1.5-11.33-3.83-22.33-6.17-33.5-4.17-20.67-10.33-40.83-16.17-61-8-27.33-18-54-27.33-80.67-8.33-23.33-18.17-46-27.33-69-11.17-28.33-24.33-55.67-36-83.83-8.17-19.33-17.17-38.17-25.33-57.33-11.17-26.17-22.67-52-32.33-78.83-8.33-23.33-17.17-46.33-20.33-71-2.33-17.17-4.33-34.33-4.67-51.67-.33-19.33-.33-38.67 1-58 3-42.33 12.33-83.33 25.67-123.33C60.6 537.98 93.77 463.98 139.1 396.48c41.67-62 93-115 156.17-156.67v-236.16z"/><path d="M295.27 3.65v236.17c-63.17 41.67-114.5 94.67-156.17 156.67-45.33 67.5-78.5 141.5-98.83 221.33-13.33 40-22.67 81-25.67 123.33-1.33 19.33-1.33 38.67-1 58 .33 17.33 2.33 34.5 4.67 51.67 3.17 24.67 12 47.67 20.33 71 9.67 26.83 21.17 52.67 32.33 78.83 8.17 19.17 17.17 38 25.33 57.33 11.67 28.17 24.83 55.5 36 83.83 9.17 23 19 45.67 27.33 69 9.33 26.67 19.33 53.33 27.33 80.67 5.83 20.17 12 40.33 16.17 61 2.33 11.17 4.67 22.17 6.17 33.5 1.33 10.17 3.67 20.17 4.33 30.5h1.67c1.33-3 2.5-6.33 3.67-9.33 5.83-16.17 13.33-31.17 20-46.83 4-9.5 8.67-18.5 12-28.17 4.83-14.17 12-27.17 17.17-41.33 5-13.5 10.33-27.17 15.67-40.83 2.5-6.33 4.17-13 6.17-19.5 3.17-10.83 7.17-21.33 9.5-32.5 2.5-11.83 7.17-22.92 10.17-34.58 3.5-13 7.17-26.17 10.83-39.17 1.83-6.17 2.17-12.67 3.33-19 3.17-16.75 6.17-33.5 7.5-50.5 1.33-17.33 6-33.83 12.67-50 1-2 1.83-4.17 3.33-5.67l2.33 1.5v-99.51c8.25-6.58 17-12.83 26-18.5 24.33-16.58 47.92-34.33 69.92-53.75 74.42-65.92 122.25-149.92 139.17-252.25 6.58-39.75 6.83-78.92 2.58-119.17-10.5-97-39.67-183.08-87.33-262.33-19.42-31.67-41.75-61.67-66.83-91.08-8.17-12.33-16.83-23.25-24.83-35.58l-35.58-66.83h-3z"/></g></svg>
